<svg width="393px" height="61px" viewBox="0 0 393 61" version="1.1" xmlns="http://www.w3.org/2000/svg" xmlns:xlink="http://www.w3.org/1999/xlink">
    <title>Shatterproof-logo</title>
    <g id="Symbols" stroke="none" stroke-width="1" fill="none" fill-rule="evenodd">
        <g id="Artboard" transform="translate(-56.000000, -106.000000)" fill="#60C5B7">
            <g id="Group-19" transform="translate(56.000000, 106.000000)">
                <path d="M253.3454,27.2486 C253.3454,28.7046 252.6584,29.3886 251.2044,29.3886 L248.6374,29.3886 L248.6374,10.8166 L251.2044,10.8166 C252.6584,10.8166 253.3454,11.5046 253.3454,12.9586 L253.3454,27.2486 Z M254.1994,0.5506 L236.6554,0.5506 L236.6554,60.4516 L248.6374,60.4516 L248.6374,39.6576 L254.1994,39.6576 C261.6474,39.6576 265.3254,35.9776 265.3254,28.5356 L265.3254,11.6726 C265.3254,4.2286 261.6474,0.5506 254.1994,0.5506 L254.1994,0.5506 Z" id="Fill-11"></path>
                <path d="M286.2541,25.4556 C286.2541,26.9066 285.5711,27.5936 284.1141,27.5936 L281.2061,27.5936 L281.2061,10.9926 L284.1141,10.9926 C285.5711,10.9926 286.2541,11.6726 286.2541,13.1266 L286.2541,25.4556 Z M293.1001,32.1246 C296.3511,30.9286 298.2331,28.3586 298.2331,23.2276 L298.2331,11.6726 C298.2331,4.2286 294.5561,0.5506 287.1091,0.5506 L269.2221,0.5506 L269.2221,60.4486 L281.2061,60.4486 L281.2061,37.7756 L284.2001,37.7756 C285.6551,37.7756 286.3421,38.4576 286.3421,39.9106 L286.3421,60.4486 L298.3201,60.4486 L298.3201,39.8276 C298.3201,35.4686 296.7801,33.1536 293.1001,32.1246 L293.1001,32.1246 Z" id="Fill-12"></path>
                <path d="M320.4191,48.5572 C320.4191,50.0122 319.7351,50.6962 318.2831,50.6962 L316.5711,50.6962 C315.1161,50.6962 314.4281,50.0122 314.4281,48.5572 L314.4281,12.4472 C314.4281,10.9932 315.1161,10.3052 316.5711,10.3052 L318.2831,10.3052 C319.7351,10.3052 320.4191,10.9932 320.4191,12.4472 L320.4191,48.5572 Z M332.3991,49.8422 L332.3991,11.1622 C332.3991,3.7182 328.7211,0.0382 321.2761,0.0382 L313.5781,0.0382 C306.1311,0.0382 302.4491,3.7182 302.4491,11.1622 L302.4491,49.8422 C302.4491,57.2872 306.1311,60.9672 313.5781,60.9672 L321.2761,60.9672 C328.7211,60.9672 332.3991,57.2872 332.3991,49.8422 L332.3991,49.8422 Z" id="Fill-13"></path>
                <path d="M354.5504,48.5572 C354.5504,50.0122 353.8664,50.6962 352.4044,50.6962 L350.6924,50.6962 C349.2384,50.6962 348.5554,50.0122 348.5554,48.5572 L348.5554,12.4472 C348.5554,10.9932 349.2384,10.3052 350.6924,10.3052 L352.4044,10.3052 C353.8664,10.3052 354.5504,10.9932 354.5504,12.4472 L354.5504,48.5572 Z M355.4044,0.0382 L347.7004,0.0382 C340.2534,0.0382 336.5734,3.7182 336.5734,11.1622 L336.5734,49.8422 C336.5734,57.2872 340.2534,60.9672 347.7004,60.9672 L355.4044,60.9672 C362.8454,60.9672 366.5274,57.2872 366.5274,49.8422 L366.5274,11.1622 C366.5274,3.7182 362.8454,0.0382 355.4044,0.0382 L355.4044,0.0382 Z" id="Fill-14"></path>
                <polygon id="Fill-15" points="392.6754 11.2496 392.6754 0.5506 370.8554 0.5506 370.8554 60.4516 382.8364 60.4516 382.8364 35.9786 392.2464 35.9786 392.2464 25.2806 382.8364 25.2806 382.8364 11.2496"></polygon>
                <path d="M206.9079,10.962 L209.8209,10.962 C211.2739,10.962 211.9579,11.642 211.9579,13.098 L211.9579,23.817 L206.9079,23.817 L206.9079,10.962 Z M94.9979,41.25 L89.6029,41.25 L90.1599,35.372 L94.4189,35.372 L94.9979,41.25 Z M92.2559,13.285 L93.2859,23.817 L91.2579,23.817 L92.2559,13.285 Z M223.9109,23.817 C223.9199,23.604 223.9409,23.416 223.9409,23.196 L223.9409,11.642 C223.9409,4.198 220.2599,0.518 212.8179,0.518 L194.9299,0.518 L194.9299,23.817 L180.3579,23.817 L180.3579,11.212 L190.6279,11.212 L190.6279,0.518 L168.3779,0.518 L168.3779,23.817 L157.3589,23.817 L157.3589,11.212 L164.6309,11.212 L164.6309,0.518 L138.1009,0.518 L138.1009,11.212 L145.3749,11.212 L145.3749,23.817 L127.6529,23.817 L127.6529,11.212 L134.9299,11.212 L134.9299,0.518 L108.4029,0.518 L108.4029,11.212 L115.6759,11.212 L115.6759,23.817 L104.0479,23.817 L100.9859,0.518 L84.6409,0.518 L81.5769,23.817 L73.2069,23.817 L73.2069,0.518 L61.2319,0.518 L61.2319,23.817 L55.2399,23.817 L55.2399,0.518 L43.2619,0.518 L43.2619,23.817 L26.9809,23.817 L24.1779,21.739 C22.7239,20.716 22.1249,19.774 22.1249,17.888 L22.1249,12.242 C22.1249,10.789 22.8079,10.102 24.2639,10.102 L25.2039,10.102 C26.6579,10.102 27.3459,10.789 27.3459,12.242 L27.3459,20.303 L39.0639,20.303 L39.0639,11.13 C39.0639,3.685 35.3879,0.002 27.9419,0.002 L21.4359,0.002 C13.9969,0.002 10.3149,3.685 10.3149,11.13 L10.3149,20.63 C10.3149,21.821 10.4119,22.863 10.6149,23.817 L0.8149,23.817 L0.8149,35.372 L22.2999,35.372 L25.3769,37.653 C26.8299,38.683 27.4269,39.626 27.4269,41.509 L27.4269,48.694 C27.4269,50.151 26.7429,50.837 25.2909,50.837 L24.1779,50.837 C22.7239,50.837 22.0379,50.151 22.0379,48.694 L22.0379,38.835 L10.3149,38.835 L10.3149,49.806 C10.3149,57.252 13.9969,60.933 21.4359,60.933 L28.1119,60.933 C35.5559,60.933 39.2379,57.252 39.2379,49.806 L39.2379,38.769 C39.2379,37.468 39.1249,36.368 38.9029,35.372 L43.2619,35.372 L43.2619,60.419 L55.2399,60.419 L55.2399,35.372 L61.2319,35.372 L61.2319,60.419 L73.2069,60.419 L73.2069,35.372 L80.0599,35.372 L76.7679,60.419 L87.6359,60.419 L88.4909,51.692 L96.0179,51.692 L96.9609,60.419 L108.8609,60.419 L105.5679,35.372 L115.6759,35.372 L115.6759,60.419 L127.6529,60.419 L127.6529,35.372 L145.3749,35.372 L145.3749,60.419 L157.3589,60.419 L157.3589,35.372 L168.3779,35.372 L168.3779,60.419 L190.7999,60.419 L190.7999,49.722 L180.3579,49.722 L180.3579,35.372 L194.9299,35.372 L194.9299,60.419 L206.9079,60.419 L206.9079,37.742 L209.9039,37.742 C211.3619,37.742 212.0449,38.428 212.0449,39.882 L212.0449,60.419 L224.0289,60.419 L224.0289,39.799 C224.0289,37.978 223.7389,36.533 223.1599,35.372 L237.4939,35.372 L237.4939,23.817 L223.9109,23.817 Z" id="Fill-16"></path>
            </g>
        </g>
    </g>
</svg>